<svg width="114" height="36" viewBox="0 0 114 36" fill="none" xmlns="http://www.w3.org/2000/svg">
<path d="M112.72 25.2693C112.73 25.2693 112.73 25.2693 112.74 25.2693C112.755 25.2693 112.755 25.2693 112.765 25.2693C113.08 25.2543 113.336 24.9838 113.336 24.6532C113.336 24.6381 113.336 24.6231 113.336 24.6031C113.336 24.598 113.336 24.593 113.336 24.563C113.336 21.4469 110.896 18.927 107.885 18.927C104.874 18.927 102.435 21.4519 102.435 24.563C102.435 24.7934 102.45 25.0289 102.475 25.2543V25.2643L102.485 25.3245C102.635 26.4466 103.111 27.4736 103.867 28.3053C103.867 28.3053 103.867 28.3053 103.872 28.3103C104.709 29.2321 105.846 29.8583 107.104 30.0937L107.119 30.0988L107.199 30.1138C107.239 30.1188 107.284 30.1288 107.344 30.1388C109.002 30.3392 110.475 30.0988 111.718 29.4725C112.023 29.3172 112.299 29.1469 112.539 28.9665C112.614 28.9064 112.685 28.8513 112.745 28.8012C112.775 28.7762 112.8 28.7511 112.815 28.7361C113.095 28.4455 113.115 28.3453 112.945 28.0798C112.76 27.7842 112.594 27.5287 112.454 27.3183C112.404 27.2432 112.364 27.1831 112.324 27.133C112.304 27.1029 112.304 27.1029 112.289 27.0879C112.284 27.0829 112.284 27.0829 112.279 27.0779C112.123 26.8875 112.018 26.8675 111.848 27.0178C111.828 27.0328 111.768 27.0829 111.758 27.0929C110.56 28.16 108.922 28.5006 107.289 28.16C106.983 28.0798 106.698 27.9746 106.437 27.8494C105.415 27.3334 104.689 26.4216 104.479 25.3595L104.464 25.2744H104.549L112.72 25.2693ZM104.629 23.2254C105.06 21.8176 106.367 20.8758 107.89 20.8758C109.348 20.8758 110.731 21.8627 111.212 23.2204L111.247 23.3155H104.604L104.629 23.2254Z" fill="#EE4D2D"/>
<path d="M99.9393 25.2693C99.9493 25.2693 99.9493 25.2693 99.9594 25.2693C99.9744 25.2693 99.9744 25.2693 99.9844 25.2693C100.3 25.2543 100.556 24.9838 100.556 24.6532C100.556 24.6381 100.556 24.6231 100.556 24.6031C100.556 24.598 100.556 24.593 100.556 24.563C100.556 21.4469 98.1158 18.927 95.1049 18.927C92.094 18.927 89.6543 21.4519 89.6543 24.563C89.6543 24.7934 89.6693 25.0289 89.6944 25.2543V25.2643L89.7044 25.3245C89.8547 26.4466 90.3306 27.4736 91.0871 28.3053C91.0871 28.3053 91.0871 28.3053 91.0921 28.3103C91.9287 29.2321 93.0659 29.8583 94.3234 30.0937L94.3384 30.0988L94.4186 30.1138C94.4586 30.1188 94.5037 30.1288 94.5638 30.1388C96.2221 30.3392 97.6949 30.0988 98.9374 29.4725C99.243 29.3172 99.5185 29.1469 99.759 28.9665C99.8341 28.9064 99.9042 28.8513 99.9644 28.8012C99.9944 28.7762 100.019 28.7511 100.034 28.7361C100.315 28.4455 100.335 28.3453 100.165 28.0798C99.9794 27.7842 99.8141 27.5287 99.6738 27.3183C99.6237 27.2432 99.5836 27.1831 99.5435 27.133C99.5235 27.1029 99.5235 27.1029 99.5085 27.0879C99.5035 27.0829 99.5035 27.0829 99.4985 27.0779C99.3432 26.8875 99.238 26.8675 99.0676 27.0178C99.0476 27.0328 98.9875 27.0829 98.9774 27.0929C97.7801 28.16 96.1419 28.5006 94.5087 28.16C94.2031 28.0798 93.9176 27.9746 93.6571 27.8494C92.6351 27.3334 91.9087 26.4216 91.6983 25.3595L91.6832 25.2744H91.7684L99.9393 25.2693ZM91.8436 23.2254C92.2744 21.8176 93.5819 20.8758 95.1049 20.8758C96.5627 20.8758 97.9454 21.8627 98.4264 23.2204L98.4614 23.3155H91.8185L91.8436 23.2254Z" fill="#EE4D2D"/>
<path d="M82.0553 18.9067C80.7427 18.9067 79.4853 19.3576 78.4783 20.1792L78.3631 20.2744V19.2424C78.3631 18.9669 78.303 18.9067 78.0275 18.9067H76.7399C76.4594 18.9067 76.4043 18.9618 76.4043 19.2424V35.6644C76.4043 35.9349 76.4644 36 76.7399 36H78.0275C78.303 36 78.3631 35.9349 78.3631 35.6644V28.816L78.4783 28.9112C79.4853 29.7328 80.7427 30.1837 82.0553 30.1837C85.1764 30.1837 87.7063 27.6588 87.7063 24.5477C87.7113 21.4317 85.1764 18.9067 82.0553 18.9067ZM82.0553 28.2199C80.0514 28.2199 78.4182 26.6268 78.3631 24.6329V24.4425C78.4132 22.4486 80.0514 20.8555 82.0553 20.8555C84.0943 20.8555 85.7475 22.5037 85.7475 24.5377C85.7475 26.5717 84.0943 28.2199 82.0553 28.2199Z" fill="#EE4D2D"/>
<path d="M68.719 18.9368C65.5428 18.9368 62.9678 21.4617 62.9678 24.5727C62.9678 27.6838 65.5428 30.2087 68.719 30.2087C71.8952 30.2087 74.4702 27.6838 74.4702 24.5727C74.4752 21.4567 71.9002 18.9368 68.719 18.9368ZM68.719 28.2499C66.6449 28.2499 64.9617 26.6017 64.9617 24.5677C64.9617 22.5338 66.6449 20.8856 68.719 20.8856C70.793 20.8856 72.4763 22.5338 72.4763 24.5677C72.4763 26.6017 70.793 28.2499 68.719 28.2499Z" fill="#EE4D2D"/>
<path d="M55.7937 18.922C54.6465 18.922 53.5393 19.2878 52.6176 19.9691L52.5073 20.0542V12.4294C52.5073 12.1789 52.4222 12.0938 52.1717 12.0938H50.8191C50.5435 12.0938 50.4834 12.1589 50.4834 12.4294V29.8233C50.4834 30.0888 50.5485 30.1589 50.8191 30.1589H52.1717C52.4222 30.1589 52.5073 30.0737 52.5073 29.8233V24.1422C52.5073 22.2335 53.9451 20.9259 55.7937 20.9109C57.6023 20.8959 59.0801 22.2585 59.0801 24.1572V29.8233C59.0801 30.1088 59.1302 30.1589 59.4158 30.1589H60.7684C61.054 30.1589 61.1041 30.1088 61.1041 29.8233V24.1372C61.0941 21.2716 58.6994 18.922 55.7937 18.922Z" fill="#EE4D2D"/>
<path d="M36.867 27.0631C36.6716 27.3637 36.5864 27.4839 36.5413 27.5541C36.386 27.7795 36.4061 27.8847 36.6415 28.0801C37.1876 28.5209 37.889 28.9818 38.3649 29.2123C39.6824 29.8535 41.1102 30.1942 42.6182 30.2243C43.5951 30.2744 44.8174 30.0439 45.7292 29.6381C47.3774 28.9067 48.4295 27.4739 48.6148 25.7155C48.9154 22.8649 47.0518 21.0815 42.2474 19.6437C40.0131 18.9273 38.961 17.9704 38.961 16.6378C39.0262 15.1649 40.3988 14.0628 42.2524 13.9927C43.7454 13.9977 45.0629 14.3884 46.3554 15.2201C46.631 15.3854 46.7562 15.3553 46.9366 15.1148C46.9566 15.0798 47.0167 14.9946 47.2622 14.6439C47.4926 14.3183 47.5678 14.2081 47.5878 14.173C47.7431 13.8824 47.7181 13.7722 47.4425 13.5718C47.167 13.3765 46.3905 12.9757 45.9496 12.8003C44.7172 12.3094 43.4448 12.0739 42.1773 12.099C39.2917 12.1591 37.0423 14.0277 36.892 16.4825C36.7968 18.251 37.6986 19.6787 39.5873 20.7308C40.1183 21.0063 42.047 21.7377 42.9538 21.9982C45.5188 22.7447 46.8564 24.1224 46.5809 25.7455C46.3304 27.2184 44.7774 28.2003 42.5981 28.2705C41.02 28.2354 39.4269 27.6593 38.0443 26.6273C38.0392 26.6222 38.0042 26.5972 37.9391 26.5471C37.8489 26.482 37.8489 26.482 37.8338 26.472C37.5533 26.2766 37.388 26.2966 37.2126 26.5471C37.1826 26.5822 36.9722 26.9078 36.867 27.0631Z" fill="#EE4D2D"/>
<path fill-rule="evenodd" clip-rule="evenodd" d="M26.3563 34.0914C27.9093 34.0513 29.1668 32.7938 29.297 31.2408L29.3071 31.0555L30.4042 8.91235C30.4042 8.90233 30.4042 8.89231 30.4042 8.87728C30.4042 8.51658 30.1136 8.22601 29.7529 8.22601C29.7479 8.22601 29.7479 8.22601 29.7429 8.22601H22.6942C22.5238 3.6471 19.2324 0 15.1996 0C11.1667 0 7.88034 3.6471 7.71001 8.22601H0.641248C0.285556 8.23102 0 8.52159 0 8.87728C0 8.89231 0 8.91235 0 8.92738L1.00195 30.9853L1.01698 31.2609C1.17228 32.7938 2.28946 34.0312 3.81743 34.0864L26.2411 34.0914H26.3563ZM15.1996 1.98887C18.1353 1.98887 20.53 4.75926 20.6452 8.22601H9.759C9.86921 4.75926 12.2639 1.98887 15.1996 1.98887ZM20.7754 25.5147C20.5751 27.1529 19.5781 28.4654 18.0301 29.1217C17.1684 29.4874 16.0112 29.6828 15.0944 29.6227C13.6666 29.5676 12.324 29.2219 11.0866 28.5907C10.6457 28.3652 9.98444 27.9143 9.47845 27.4935C9.3482 27.3883 9.33317 27.3182 9.41833 27.1979C9.46342 27.1278 9.54859 27.0076 9.73395 26.732C10.0045 26.3363 10.0395 26.2912 10.0696 26.2411C10.1548 26.1108 10.295 26.0958 10.4353 26.206C10.4503 26.216 10.4503 26.216 10.4604 26.2261C10.4854 26.2411 10.4854 26.2411 10.5355 26.2862C10.5906 26.3263 10.6207 26.3513 10.6357 26.3613C11.9683 27.3983 13.5263 27.9995 15.0944 28.0596C17.2786 28.0296 18.8467 27.0577 19.1272 25.5598C19.4378 23.9115 18.1353 22.4888 15.5853 21.6972C14.7888 21.4468 12.7749 20.6502 12.4041 20.4348C10.6608 19.4178 9.84416 18.0902 9.95939 16.442C10.1347 14.1626 12.2689 12.4643 14.9591 12.4542C16.1615 12.4542 17.3638 12.6997 18.516 13.1807C18.9268 13.351 19.6533 13.7468 19.9037 13.9321C20.049 14.0373 20.0791 14.1626 19.9939 14.2928C19.9488 14.368 19.8687 14.4932 19.7084 14.7487V14.7537C19.4929 15.0894 19.4879 15.0994 19.4378 15.1796C19.3527 15.3048 19.2525 15.3198 19.1022 15.2246C17.8698 14.403 16.4971 13.9872 14.9942 13.9572C13.1205 13.9922 11.7178 15.0994 11.6226 16.6123C11.5976 17.975 12.6296 18.9719 14.8489 19.7284C19.3727 21.1612 21.0961 22.8495 20.7754 25.5147Z" fill="#EE4D2D"/>
</svg>
