<?xml version="1.0" encoding="UTF-8" standalone="no"?>
<svg
   xmlns:dc="http://purl.org/dc/elements/1.1/"
   xmlns:cc="http://creativecommons.org/ns#"
   xmlns:rdf="http://www.w3.org/1999/02/22-rdf-syntax-ns#"
   xmlns:svg="http://www.w3.org/2000/svg"
   xmlns="http://www.w3.org/2000/svg"
   xmlns:sodipodi="http://sodipodi.sourceforge.net/DTD/sodipodi-0.dtd"
   xmlns:inkscape="http://www.inkscape.org/namespaces/inkscape"
   width="79"
   height="25"
   viewBox="0 0 79 25"
   fill="none"
   version="1.1"
   id="svg16"
   sodipodi:docname="shopee-logo.svg"
   inkscape:version="1.0.1 (3bc2e813f5, 2020-09-07, custom)">
  <metadata
     id="metadata22">
    <rdf:RDF>
      <cc:Work
         rdf:about="">
        <dc:format>image/svg+xml</dc:format>
        <dc:type
           rdf:resource="http://purl.org/dc/dcmitype/StillImage" />
        <dc:title></dc:title>
      </cc:Work>
    </rdf:RDF>
  </metadata>
  <defs
     id="defs20" />
  <sodipodi:namedview
     pagecolor="#ffffff"
     bordercolor="#666666"
     borderopacity="1"
     objecttolerance="10"
     gridtolerance="10"
     guidetolerance="10"
     inkscape:pageopacity="0"
     inkscape:pageshadow="2"
     inkscape:window-width="1920"
     inkscape:window-height="1012"
     id="namedview18"
     showgrid="false"
     inkscape:zoom="12.77193"
     inkscape:cx="36.810803"
     inkscape:cy="6.8029724"
     inkscape:window-x="0"
     inkscape:window-y="0"
     inkscape:window-maximized="1"
     inkscape:current-layer="svg16" />
  <path
     d="m 77.514385,13.827381 c 0.01,0 0.01,0 0.02,0 0.015,0 0.015,0 0.025,0 0.315,-0.015 0.571,-0.2855 0.571,-0.6161 0,-0.0151 0,-0.0301 0,-0.0501 0,-0.0051 0,-0.0101 0,-0.0401 0,-3.116105 -2.44,-5.6360051 -5.451,-5.6360051 -3.011,0 -5.45,2.5249001 -5.45,5.6360051 0,0.2304 0.015,0.4659 0.04,0.6913 v 0.01 l 0.01,0.0602 c 0.15,1.1221 0.626,2.1491 1.382,2.9808 0,0 0,0 0.005,0.005 0.837,0.9218 1.974,1.548 3.232,1.7834 l 0.015,0.0051 0.08,0.015 c 0.04,0.005 0.085,0.015 0.145,0.025 1.658,0.2004 3.131,-0.04 4.374,-0.6663 0.305,-0.1553 0.581,-0.3256 0.821,-0.506 0.075,-0.0601 0.146,-0.1152 0.206,-0.1653 0.03,-0.025 0.055,-0.0501 0.07,-0.0651 0.28,-0.2906 0.3,-0.3908 0.13,-0.6563 -0.185,-0.2956 -0.351,-0.5511 -0.491,-0.7615 -0.05,-0.0751 -0.09,-0.1352 -0.13,-0.1853 -0.02,-0.0301 -0.02,-0.0301 -0.035,-0.0451 -0.005,-0.005 -0.005,-0.005 -0.01,-0.01 -0.156,-0.1904 -0.261,-0.2104 -0.431,-0.0601 -0.02,0.015 -0.08,0.0651 -0.09,0.0751 -1.198,1.0671 -2.836,1.4077 -4.469,1.0671 -0.306,-0.0802 -0.591,-0.1854 -0.852,-0.3106 -1.022,-0.516 -1.748,-1.4278 -1.958,-2.4899 l -0.015,-0.0851 h 0.085 z m -8.091,-2.0439 c 0.431,-1.407804 1.738,-2.3496051 3.261,-2.3496051 1.458,0 2.841,0.9869011 3.322,2.3446051 l 0.035,0.0951 h -6.643 z"
     fill="#ee4d2d"
     id="path2" />
  <path
     d="m 64.733685,13.827381 c 0.01,0 0.01,0 0.0201,0 0.015,0 0.015,0 0.025,0 0.3156,-0.015 0.5716,-0.2855 0.5716,-0.6161 0,-0.0151 0,-0.0301 0,-0.0501 0,-0.0051 0,-0.0101 0,-0.0401 0,-3.116105 -2.4402,-5.6360051 -5.4511,-5.6360051 -3.0109,0 -5.4506,2.5249001 -5.4506,5.6360051 0,0.2304 0.015,0.4659 0.0401,0.6913 v 0.01 l 0.01,0.0602 c 0.1503,1.1221 0.6262,2.1491 1.3827,2.9808 0,0 0,0 0.005,0.005 0.8366,0.9218 1.9738,1.548 3.2313,1.7834 l 0.015,0.0051 0.0802,0.015 c 0.04,0.005 0.0851,0.015 0.1452,0.025 1.6583,0.2004 3.1311,-0.04 4.3736,-0.6663 0.3056,-0.1553 0.5811,-0.3256 0.8216,-0.506 0.0751,-0.0601 0.1452,-0.1152 0.2054,-0.1653 0.03,-0.025 0.0546,-0.0501 0.0696,-0.0651 0.281,-0.2906 0.301,-0.3908 0.131,-0.6563 -0.1856,-0.2956 -0.3509,-0.5511 -0.4912,-0.7615 -0.0501,-0.0751 -0.0902,-0.1352 -0.1303,-0.1853 -0.02,-0.0301 -0.02,-0.0301 -0.035,-0.0451 -0.005,-0.005 -0.005,-0.005 -0.01,-0.01 -0.1553,-0.1904 -0.2605,-0.2104 -0.4309,-0.0601 -0.02,0.015 -0.0801,0.0651 -0.0902,0.0751 -1.1973,1.0671 -2.8355,1.4077 -4.4687,1.0671 -0.3056,-0.0802 -0.5911,-0.1854 -0.8516,-0.3106 -1.022,-0.516 -1.7484,-1.4278 -1.9588,-2.4899 l -0.0151,-0.0851 h 0.0852 z m -8.0957,-2.0439 c 0.4308,-1.407804 1.7383,-2.3496051 3.2613,-2.3496051 1.4578,0 2.8405,0.9869011 3.3215,2.3446051 l 0.035,0.0951 h -6.6429 z"
     fill="#ee4d2d"
     id="path4" />
  <path
     d="m 46.849685,7.4647759 c -1.3126,0 -2.57,0.4509 -3.577,1.2725 l -0.1152,0.0952 v -1.032 c 0,-0.2755 -0.0601,-0.3357 -0.3356,-0.3357 h -1.2876 c -0.2805,0 -0.3356,0.0551 -0.3356,0.3357 V 24.222481 c 0,0.2705 0.0601,0.3356 0.3356,0.3356 h 1.2876 c 0.2755,0 0.3356,-0.0651 0.3356,-0.3356 v -6.8484 l 0.1152,0.0952 c 1.007,0.8216 2.2644,1.2725 3.577,1.2725 3.1211,0 5.651,-2.5249 5.651,-5.636 0.005,-3.1160047 -2.5299,-5.6410051 -5.651,-5.6410051 z m 0,9.3132051 c -2.0039,0 -3.6371,-1.5931 -3.6922,-3.587 v -0.1904 c 0.0501,-1.993901 1.6883,-3.5870051 3.6922,-3.5870051 2.039,0 3.6922,1.6482041 3.6922,3.6822051 0,2.034 -1.6532,3.6822 -3.6922,3.6822 z"
     fill="#ee4d2d"
     id="path6" />
  <path
     d="m 33.513385,7.4948759 c -3.1762,0 -5.7512,2.5249001 -5.7512,5.6359051 0,3.1111 2.575,5.636 5.7512,5.636 3.1762,0 5.7512,-2.5249 5.7512,-5.636 0.005,-3.116005 -2.57,-5.6359051 -5.7512,-5.6359051 z m 0,9.3131051 c -2.0741,0 -3.7573,-1.6482 -3.7573,-3.6822 0,-2.033901 1.6832,-3.6821051 3.7573,-3.6821051 2.074,0 3.7573,1.6482041 3.7573,3.6821051 0,2.034 -1.6833,3.6822 -3.7573,3.6822 z"
     fill="#ee4d2d"
     id="path8" />
  <path
     d="m 20.588085,7.4800759 c -1.1472,0 -2.2544,0.3658 -3.1761,1.0471 l -0.1103,0.0851 V 0.9874761 c 0,-0.2505 -0.0851,-0.3356 -0.3356,-0.3356 h -1.3526 c -0.2756,0 -0.3357,0.0651 -0.3357,0.3356 V 18.381381 c 0,0.2655 0.0651,0.3356 0.3357,0.3356 h 1.3526 c 0.2505,0 0.3356,-0.0852 0.3356,-0.3356 v -5.6811 c 0,-1.908702 1.4378,-3.2163051 3.2864,-3.2313051 1.8086,-0.015 3.2864,1.3476031 3.2864,3.2463051 v 5.6661 c 0,0.2855 0.0501,0.3356 0.3357,0.3356 h 1.3526 c 0.2856,0 0.3357,-0.0501 0.3357,-0.3356 v -5.6861 c -0.01,-2.8656051 -2.4047,-5.2152051 -5.3104,-5.2152051 z"
     fill="#ee4d2d"
     id="path10" />
  <path
     d="m 1.6613824,15.621181 c -0.1954,0.3006 -0.2806,0.4208 -0.3257,0.491 -0.1553,0.2254 -0.1352,0.3306 0.1002,0.526 0.5461,0.4408 1.2475,0.9017 1.7234,1.1322 1.3175,0.6412 2.7453,0.9819 4.2533,1.012 0.9769,0.0501 2.1991981,-0.1804 3.1109966,-0.5862 1.648204,-0.7314 2.700306,-2.1642 2.885606,-3.9226 0.3006,-2.8506 -1.563004,-4.6340051 -6.3674026,-6.0718051 -2.2343,-0.7164 -3.2864,-1.6732998 -3.2864,-3.0058998 0.0652,-1.4729 1.4378,-2.575 3.2914,-2.6451 1.493,0.005 2.8104972,0.3957 4.1029966,1.2274 0.275601,0.1653 0.400801,0.1352 0.581202,-0.1053 0.02,-0.035 0.0801,-0.1202 0.325601,-0.4709 0.230401,-0.3256 0.305601,-0.4358 0.325601,-0.4709 0.155301,-0.2906 0.130301,-0.4008 -0.1453,-0.6012 -0.275501,-0.1953 -1.052004,-0.5961 -1.492904,-0.7715 -1.2323979,-0.4909 -2.5047966,-0.7264 -3.7722966,-0.7013 -2.8856,0.0601 -5.135,1.9287 -5.2853,4.3835 -0.0952,1.7685 0.8066,3.1961998 2.6953,4.2482998 0.531,0.2755 2.4597,1.0069011 3.3665,1.2674021 2.5649966,0.746503 3.9025986,2.124203 3.6270976,3.747303 -0.250502,1.4729 -1.8034992,2.4548 -3.9827976,2.525 -1.5781,-0.0351 -3.1712,-0.6112 -4.5538,-1.6432 -0.0051,-0.0051 -0.0401,-0.0301 -0.1052,-0.0802 -0.0902,-0.0651 -0.0902,-0.0651 -0.1053,-0.0751 -0.2805,-0.1954 -0.4458,-0.1754 -0.6212,0.0751 -0.03,0.0351 -0.2404,0.3607 -0.3456,0.516 z"
     fill="#ee4d2d"
     id="path12" />
</svg>
