<svg xmlns="http://www.w3.org/2000/svg" viewBox="0 0 47.624 7.937" height="30" width="180"><g stroke-width="1.058"><path fill="none" d="M13.032 6.307h34.282v.43H13.032z"/><text style="line-height:1.25;-inkscape-font-specification:'Digitalt, Normal';font-variant-ligatures:normal;font-variant-caps:normal;font-variant-numeric:normal;font-variant-east-asian:normal;text-align:start" x="5.993" y="264.521" transform="matrix(.94807 0 0 .85207 5.681 -217.825)" font-weight="400" font-size="9.878" font-family="Digitalt" letter-spacing="0" word-spacing="0" fill="red" stroke-width=".147"><tspan x="5.993" y="264.521" style="-inkscape-font-specification:'Digitalt, Normal';font-variant-ligatures:normal;font-variant-caps:normal;font-variant-numeric:normal;font-variant-east-asian:normal;text-align:start">Alfarach</tspan></text><path d="M4.972.402c-.239.02-.5.104-.661.28-.194.21-.258.515-.267.815v.001c-.018.601.194 1.314.49 2.025.095.23.205.445.313.659-.176.356-.356.702-.532.974a4.433 4.433 0 01-.443.59.958.958 0 01-.119.109c-.03-.014-.06-.026-.106-.05a6.426 6.426 0 01-.492-.293c-.151-.098-.322-.22-.492-.344-.007-.099-.012-.192-.031-.32-.093-.598-.228-1.184-.474-1.627-.123-.221-.279-.42-.507-.542a.969.969 0 00-.806-.034c-.26.102-.462.286-.53.521-.066.23-.008.456.092.661.197.41.583.81 1.02 1.194.186.164.384.32.58.469.095.918.12 1.802.12 1.808-.003.19.173.32.344.319a.253.253 0 00.066-.008l.006-.001c.005-.001 1.372-.272 2.717-.287 1.347-.014 2.727.229 2.727.229.193.033.41-.102.403-.32 0-.004.003-.89.076-1.81.193-.154.387-.314.57-.482.427-.393.804-.8.992-1.215.093-.207.146-.435.074-.664-.073-.233-.28-.412-.542-.508a.967.967 0 00-.804.05c-.226.129-.377.33-.494.554-.235.448-.357 1.036-.436 1.637-.017.128-.017.222-.022.32-.167.129-.335.253-.484.354-.19.13-.36.235-.486.304-.045.025-.074.038-.105.052a.968.968 0 01-.121-.106 4.439 4.439 0 01-.456-.58 10.172 10.172 0 01-.556-.96c.103-.217.21-.435.3-.668.278-.717.472-1.434.44-2.035-.016-.3-.073-.618-.286-.81-.274-.248-.71-.291-1.078-.26zm.212.544c.204-.002.27.037.339.116.065.074.123.224.135.442.023.439-.14 1.115-.402 1.79-.013.031-.03.065-.043.097-.014-.032-.033-.065-.046-.096-.278-.669-.457-1.34-.444-1.78.007-.22.061-.37.124-.446.067-.08.132-.12.337-.123zm4.003 2.17h.002a.295.295 0 01.121.023c.13.047.13.066.14.1.009.026.01.11-.05.238-.108.24-.424.6-.783.942.073-.368.14-.767.255-.987a.75.75 0 01.237-.29.163.163 0 01.078-.027zM1.231 3.2a.17.17 0 01.079.025.75.75 0 01.244.285c.121.218.197.615.28.98-.368-.333-.694-.685-.808-.922v-.001C.964 3.44.963 3.357.97 3.33c.01-.034.01-.053.138-.103a.295.295 0 01.122-.026zM5.23 4.882c.116.202.23.418.348.592.182.268.359.495.527.667.084.086.167.16.258.22.087.057.206.119.359.117a.627.627 0 00.246-.06c.066-.027.135-.061.212-.103.153-.085.337-.2.54-.338.012-.007.024-.018.036-.026-.012.219-.03.47-.036.641-.005.166-.004.2-.005.3-.331-.054-1.245-.215-2.463-.202-1.218.014-2.128.194-2.458.256-.004-.1-.003-.134-.012-.3-.01-.17-.034-.422-.051-.64l.035.025c.207.133.393.243.549.325.077.04.147.075.214.101a.63.63 0 00.248.054.633.633 0 00.356-.127c.09-.062.17-.137.252-.224.165-.176.335-.406.51-.679.114-.176.223-.394.335-.599z" style="line-height:normal;font-variant-ligatures:normal;font-variant-position:normal;font-variant-caps:normal;font-variant-numeric:normal;font-variant-alternates:normal;font-variant-east-asian:normal;font-feature-settings:normal;font-variation-settings:normal;text-indent:0;text-align:start;text-decoration-line:none;text-decoration-style:solid;text-decoration-color:#000;text-transform:none;text-orientation:mixed;white-space:normal;shape-padding:0;shape-margin:0;inline-size:0;isolation:auto;mix-blend-mode:normal;solid-color:#000;solid-opacity:1" color="#000" font-weight="400" font-family="sans-serif" overflow="visible" fill="red"/></g></svg>