<?xml version="1.0" encoding="UTF-8" standalone="no"?>
<svg
   xmlns:dc="http://purl.org/dc/elements/1.1/"
   xmlns:cc="http://creativecommons.org/ns#"
   xmlns:rdf="http://www.w3.org/1999/02/22-rdf-syntax-ns#"
   xmlns:svg="http://www.w3.org/2000/svg"
   xmlns="http://www.w3.org/2000/svg"
   xmlns:sodipodi="http://sodipodi.sourceforge.net/DTD/sodipodi-0.dtd"
   xmlns:inkscape="http://www.inkscape.org/namespaces/inkscape"
   inkscape:export-ydpi="465"
   inkscape:export-xdpi="465"
   inkscape:export-filename="C:\Users\kharis.hidayatullah\Google Drive\Jobs\Alfarach Shop\Logo\Alfarach Profile.png"
   sodipodi:docname="logo.svg"
   inkscape:version="1.0.1 (3bc2e813f5, 2020-09-07, custom)"
   id="svg8"
   version="1.1"
   viewBox="0 0 47.6244 7.9374"
   height="30"
   width="180">
  <defs
     id="defs2">
    <inkscape:path-effect
       simplify_just_coalesce="false"
       simplify_individual_paths="false"
       helper_size="0"
       smooth_angles="360"
       threshold="0.00893901"
       steps="1"
       lpeversion="1"
       is_visible="true"
       id="path-effect10154"
       effect="simplify" />
    <clipPath
       clipPathUnits="userSpaceOnUse"
       id="clipPath10185">
      <path
         d="m 123.02,174.24 c -1.845,-0.375 -3.219,-1.417 -4.068,-3.133 -0.207,-0.269 -0.376,-0.613 -0.491,-1.035 -0.115,-0.429 -0.153,-0.827 -0.085,-1.194 0.139,-0.958 0.812,-1.372 2.016,-1.227 1.977,0.215 3.525,1.25 4.636,3.088 l 0.215,0.422 c 0,0 0.315,0.707 0.318,1.421 v 0.027 c -0.001,0.173 -0.02,0.346 -0.066,0.509 -0.201,0.689 -0.674,0.954 -0.674,0.954 -0.268,0.176 -0.603,0.261 -1.002,0.261 -0.242,0 -0.51,-0.032 -0.799,-0.093 m -2.23,-5.554 c -0.191,0.099 -0.268,0.39 -0.245,0.889 0.023,0.513 0.192,1.088 0.498,1.723 0.231,0.498 0.476,0.897 0.713,1.188 l 0.537,0.537 c 0.191,0.153 0.383,0.245 0.59,0.26 0.497,0.008 0.574,-0.575 0.253,-1.754 -0.192,-0.752 -0.537,-1.426 -1.005,-2 -0.336,-0.422 -0.612,-0.682 -0.857,-0.797 -0.132,-0.052 -0.24,-0.078 -0.33,-0.078 z"
         id="path10187" />
    </clipPath>
    <clipPath
       clipPathUnits="userSpaceOnUse"
       id="clipPath10197">
      <path
         d="m 119.39,174.54 c -1.11,-0.091 -2.198,-0.834 -3.256,-2.221 l -0.022,-0.03 -0.038,0.03 v 0.007 c -0.346,0.606 -0.882,0.874 -1.602,0.835 -0.237,-0.015 -0.506,-0.106 -0.805,-0.268 -0.237,-0.144 -0.39,-0.244 -0.429,-0.336 -0.069,-0.115 -0.039,-0.192 0.085,-0.231 0.344,-0.061 0.574,-0.115 0.69,-0.176 0.344,-0.191 0.497,-0.513 0.491,-0.958 0.006,-1.035 -0.185,-2.244 -0.576,-3.638 -0.223,-0.483 -0.077,-0.713 0.429,-0.705 l 1.41,0.183 c 0.544,0.138 0.827,0.315 0.851,0.543 l 0.015,0.423 c 0.015,1.225 -0.054,2.252 -0.177,3.058 l 0.008,0.061 c 0.491,0.973 1.126,1.554 1.931,1.776 0.322,0.085 0.613,-0.015 0.881,-0.306 0.092,-0.076 0.153,-0.107 0.192,-0.076 0.215,0.061 0.406,0.275 0.597,0.62 0.169,0.222 0.231,0.49 0.207,0.804 -0.021,0.402 -0.293,0.608 -0.801,0.608 z"
         id="path10199" />
    </clipPath>
    <clipPath
       clipPathUnits="userSpaceOnUse"
       id="clipPath10209">
      <path
         d="m 106.64,177.5 c -0.996,-0.138 -1.686,-0.345 -2.085,-0.598 -0.084,-0.061 -0.061,-0.13 0.093,-0.168 0.36,-0.115 0.628,-0.484 0.82,-1.096 0.849,-2.413 1.348,-5.38 1.494,-8.866 0.008,-0.39 0.115,-0.651 0.306,-0.735 0.444,-0.268 1.111,-0.114 1.999,0.445 0.76,0.474 1.525,1.133 2.33,2.007 0.804,0.851 1.287,1.669 1.463,2.422 0.223,0.88 -0.077,1.47 -0.881,1.754 -0.598,0.199 -1.272,0.161 -2.03,-0.107 -0.468,-0.162 -0.928,-0.422 -1.379,-0.767 l -0.062,0.054 c -0.207,1.93 -0.359,3.103 -0.46,3.54 l -0.154,0.789 c -0.053,0.322 -0.113,0.56 -0.191,0.743 -0.18,0.405 -0.505,0.605 -0.975,0.605 -0.09,0 -0.187,-0.007 -0.288,-0.022 m 2.168,-6.597 c 0.843,0.65 1.418,0.712 1.717,0.199 0.267,-0.444 0.237,-1.072 -0.078,-1.878 -0.321,-0.804 -0.742,-1.378 -1.294,-1.709 z"
         id="path10211" />
    </clipPath>
    <clipPath
       clipPathUnits="userSpaceOnUse"
       id="clipPath10221">
      <path
         d="m 112.17,166.14 -0.153,-0.191 c -1.125,-1.418 -2.367,-2.62 -3.717,-3.579 -1.723,-1.21 -3.769,-2.145 -6.121,-2.797 -3.702,-1.002 -7.011,-1.002 -9.931,0 l -0.129,0.032 c -0.054,-0.038 -0.06,-0.115 -0.039,-0.245 0.268,-3.693 2.934,-6.229 8.03,-7.64 1.855,-0.505 3.67,-0.621 5.456,-0.351 1.854,0.275 3.432,0.957 4.751,2.03 1.401,1.148 2.353,2.651 2.819,4.528 0.528,2.068 0.452,4.459 -0.238,7.18 l -0.091,0.283 -0.137,0.061 c -0.147,-0.015 -0.186,-0.1 -0.147,-0.253 0.206,-0.842 0.321,-1.755 0.36,-2.712 0.039,-1.195 -0.054,-2.322 -0.291,-3.378 -0.613,-2.775 -2.122,-4.668 -4.521,-5.663 -2.329,-0.943 -4.727,-1.073 -7.194,-0.384 -1.34,0.399 -2.536,0.959 -3.609,1.701 -0.88,0.598 -1.533,1.203 -1.968,1.816 -0.246,0.346 -0.407,0.652 -0.477,0.919 l 0.038,0.025 c 0.898,-0.093 1.931,-0.1 3.096,-0.017 2.207,0.154 4.253,0.591 6.099,1.318 2.085,0.828 3.962,2.031 5.663,3.624 1.38,1.318 2.268,2.491 2.681,3.525 0.077,0.146 0.077,0.246 -0.015,0.283 l -0.066,0.015 z"
         id="path10223" />
    </clipPath>
    <clipPath
       clipPathUnits="userSpaceOnUse"
       id="clipPath10233">
      <path
         d="m 89.894,176.68 c -0.713,-0.078 -1.341,-0.27 -1.893,-0.591 -0.115,-0.061 -0.154,-0.115 -0.115,-0.161 l 0.093,-0.076 0.137,-0.185 c 0.108,-0.113 0.184,-0.544 0.222,-1.272 l 0.407,-4.397 -2.82,-0.728 c -0.186,1.28 -0.307,2.443 -0.399,3.487 l -0.176,2.451 c 0.023,0.553 -0.153,0.82 -0.528,0.82 -0.33,0 -0.79,-0.114 -1.388,-0.329 -0.719,-0.261 -1.302,-0.568 -1.762,-0.936 -0.145,-0.115 -0.168,-0.206 -0.091,-0.269 l 0.114,-0.059 0.078,-0.031 c 0.213,-0.063 0.366,-0.237 0.436,-0.544 0.29,-1.449 0.535,-2.751 0.713,-3.923 l -0.054,-0.016 c -2.399,-0.636 -4.184,-1.302 -5.372,-1.999 0,0 -0.556,-0.332 -0.564,-0.89 v -0.024 l 0.007,-0.093 c 0.075,-0.629 0.787,-0.603 0.787,-0.603 0.697,-0.054 1.708,0.123 2.996,0.521 l 2.528,0.651 0.607,-3.944 c 0.137,-0.638 0.274,-1.014 0.428,-1.111 l 0.306,-0.153 0.805,0.052 c 1.035,0.101 1.548,0.275 1.548,0.545 l -0.038,0.297 -0.82,5.043 2.796,0.704 0.567,-3.807 0.268,-1.303 c 0.153,-0.445 0.405,-0.651 0.752,-0.614 0.78,0.063 1.302,0.207 1.57,0.422 0.091,0.078 0.116,0.176 0.062,0.322 l -0.124,0.291 c -0.46,1.341 -0.82,3.027 -1.088,5.08 l 3.219,0.475 c -1.493,-1.547 -2.007,-2.888 -1.517,-4.022 0.176,-0.421 0.445,-0.728 0.805,-0.896 0.344,-0.154 0.735,-0.192 1.172,-0.1 0.957,0.176 1.823,0.781 2.62,1.799 0.444,-1.287 1.365,-1.723 2.766,-1.278 l 0.107,0.092 c 0.008,0.061 -0.03,0.13 -0.13,0.191 -0.475,0.215 -0.744,0.727 -0.782,1.518 -0.037,0.489 0.032,1.164 0.17,2.045 l 0.215,1.211 c 0,0.36 -0.193,0.489 -0.575,0.398 -0.277,-0.062 -0.584,-0.191 -0.905,-0.369 -0.292,-0.167 -0.482,-0.298 -0.59,-0.381 -0.084,-0.108 -0.192,-0.3 -0.276,-0.592 -0.436,-1.47 -1.064,-2.55 -1.87,-3.278 -0.574,-0.529 -0.888,-0.575 -0.941,-0.13 -0.039,0.359 0.061,0.805 0.328,1.356 0.492,1.134 1.303,2.153 2.453,3.05 0.343,0.253 0.689,0.443 1.027,0.588 l 0.122,0.161 c 0,0.093 -0.077,0.154 -0.23,0.192 l -0.981,0.04 c -1.556,-0.062 -3.662,-0.368 -6.336,-0.92 l -0.124,2.122 c -0.038,1.662 0,2.834 0.124,3.509 0.037,0.23 -0.009,0.384 -0.153,0.475 -0.092,0.087 -0.254,0.13 -0.475,0.13 z m -10.88,-8.874 c -0.016,0.1 0.153,0.238 0.497,0.422 0.981,0.521 2.131,0.927 3.448,1.249 l 0.024,0.015 0.13,-0.95 c -1.8,-0.467 -2.951,-0.751 -3.472,-0.813 -0.157,-0.036 -0.285,-0.054 -0.384,-0.054 -0.152,0 -0.234,0.043 -0.243,0.131"
         id="path10235" />
    </clipPath>
    <clipPath
       clipPathUnits="userSpaceOnUse"
       id="clipPath10245">
      <path
         d="m 104.28,173.5 c -0.798,-0.176 -1.686,-0.69 -2.698,-1.533 -1.363,-1.089 -1.853,-2.162 -1.471,-3.233 0.115,-0.292 0.4,-0.506 0.843,-0.621 0.552,-0.146 1.027,-0.23 1.448,-0.299 l -0.054,-0.008 c 0.728,-0.069 1.204,-0.26 1.395,-0.551 0.124,-0.193 0.124,-0.476 0,-0.82 l -0.261,-0.505 -0.581,-0.759 c -0.491,-0.544 -0.997,-1.004 -1.534,-1.403 -0.566,-0.398 -1.125,-0.475 -1.701,-0.228 -0.115,0.037 -0.19,0.091 -0.244,0.137 l -0.177,0.03 c -0.1,-0.014 -0.153,-0.054 -0.167,-0.145 -0.008,-0.084 0.038,-0.2 0.146,-0.345 l 0.198,-0.291 c 0.59,-0.905 1.257,-1.264 1.992,-1.088 0.628,0.145 1.165,0.375 1.64,0.666 0.582,0.369 1.248,0.958 1.992,1.786 1.118,1.149 1.502,2.175 1.157,3.057 -0.061,0.382 -0.483,0.659 -1.234,0.842 -1.218,0.292 -1.968,0.499 -2.291,0.614 -0.214,0.085 -0.368,0.238 -0.459,0.467 -0.062,0.168 -0.078,0.36 -0.039,0.551 0.093,0.629 0.797,1.204 2.107,1.739 0.422,0.162 0.912,0.277 1.471,0.369 l 0.054,0.038 -0.054,0.459 c -0.141,0.742 -0.516,1.113 -1.114,1.113 -0.114,0 -0.235,-0.012 -0.364,-0.039"
         id="path10247" />
    </clipPath>
    <clipPath
       clipPathUnits="userSpaceOnUse"
       id="clipPath18">
      <path
         d="M 0,783.276 H 1028.346 V 0 H 0 Z"
         id="path16-7" />
    </clipPath>
    <linearGradient
       gradientTransform="matrix(0.03192837,0,0,0.03192837,-12.439857,-11.048777)"
       id="SVGID_1_"
       gradientUnits="userSpaceOnUse"
       x1="1339.2812"
       y1="606.34131"
       x2="1088.814"
       y2="966.22302">
      <stop
         offset="0"
         style="stop-color:#F0900A"
         id="stop60" />
      <stop
         offset="0.5"
         style="stop-color:#A3195C"
         id="stop62" />
      <stop
         offset="1"
         style="stop-color:#29295B"
         id="stop64" />
    </linearGradient>
  </defs>
  <sodipodi:namedview
     inkscape:document-rotation="0"
     showborder="true"
     units="px"
     inkscape:window-maximized="1"
     inkscape:window-y="0"
     inkscape:window-x="0"
     inkscape:window-height="1012"
     inkscape:window-width="1920"
     showgrid="false"
     inkscape:current-layer="layer1"
     inkscape:document-units="px"
     inkscape:cy="-25.88801"
     inkscape:cx="101.5449"
     inkscape:zoom="4.0000001"
     inkscape:pageshadow="2"
     inkscape:pageopacity="0"
     borderopacity="1"
     bordercolor="#ffffff"
     pagecolor="#000000"
     id="base"
     inkscape:object-paths="false"
     inkscape:snap-nodes="false"
     inkscape:showpageshadow="false" />
  <metadata
     id="metadata5">
    <rdf:RDF>
      <cc:Work
         rdf:about="">
        <dc:format>image/svg+xml</dc:format>
        <dc:type
           rdf:resource="http://purl.org/dc/dcmitype/StillImage" />
        <dc:title />
      </cc:Work>
    </rdf:RDF>
  </metadata>
  <g
     style="display:inline"
     transform="translate(0,-230.17099)"
     id="layer1"
     inkscape:groupmode="layer"
     inkscape:label="ALFARACH">
    <path
       d="m 11.45191,237.66931 q 0,-0.0329 0.04344,-0.25686 0.121175,-0.67602 0.276644,-1.39931 0.155469,-0.72535 0.402391,-1.79796 0.246922,-1.07467 0.32237,-1.4096 0.457262,-0.0185 1.257472,-0.0185 0.745338,0 1.303197,0.0185 0.03658,0 0.0686,0.0247 0.032,0.0226 0.03887,0.0575 0.100599,0.45822 0.340661,1.49795 0.242349,1.03974 0.411535,1.83906 0.171474,0.79727 0.292649,1.51234 -0.432113,0.0185 -0.795637,0.0185 -0.58301,0 -0.896235,-0.0185 -0.03887,-0.002 -0.07087,-0.0247 -0.02973,-0.0247 -0.03658,-0.0575 -0.102889,-0.47261 -0.166901,-0.82193 h -0.848222 q -0.07316,0.43973 -0.176046,0.90412 -0.438971,0.0185 -0.756769,0.0185 -0.379528,0 -0.935101,-0.0185 -0.03429,0 -0.05487,-0.0185 -0.02058,-0.0206 -0.02058,-0.0493 z m 2.096549,-1.90481 h 0.51442 q -0.05487,-0.33699 -0.14861,-0.9596 -0.09374,-0.62466 -0.134893,-0.88356 -0.04573,0.33493 -0.121175,0.96165 -0.07545,0.62466 -0.109742,0.88151 z"
       style="font-style:normal;font-variant:normal;font-weight:normal;font-stretch:normal;font-size:8.87796px;line-height:1.25;font-family:Digitalt;-inkscape-font-specification:'Digitalt, Normal';font-variant-ligatures:normal;font-variant-caps:normal;font-variant-numeric:normal;font-variant-east-asian:normal;text-align:start;letter-spacing:0px;word-spacing:0px;writing-mode:lr-tb;text-anchor:start;fill:#ff0000;fill-opacity:1;stroke:none;stroke-width:0.13229;stroke-miterlimit:4;stroke-dasharray:none"
       id="path6097" />
    <path
       d="m 16.538954,235.27135 q 0,-1.15069 0.03658,-2.46577 0.434399,-0.0185 0.800209,-0.0185 0.377241,0 0.937388,0.0185 0.03658,0 0.06402,0.0247 0.02744,0.0247 0.02744,0.0575 0.03658,1.54521 0.03658,2.38358 0,0.54658 -0.0069,1.06644 h 0.03887 q 0.834503,0 1.39465,0.0185 0.03658,0 0.06402,0.0247 0.02744,0.0246 0.02744,0.0575 0.0092,0.50138 0.0092,0.71097 0,0.3226 -0.0092,0.60412 -0.4344,0.0185 -1.348925,0.0185 -0.226345,0 -0.964824,-0.0144 -0.736192,-0.0123 -0.978541,-0.0206 -0.03658,0 -0.06402,-0.0246 -0.02744,-0.0246 -0.02744,-0.0575 -0.03658,-1.54522 -0.03658,-2.38358 z"
       style="font-style:normal;font-variant:normal;font-weight:normal;font-stretch:normal;font-size:8.87796px;line-height:1.25;font-family:Digitalt;-inkscape-font-specification:'Digitalt, Normal';font-variant-ligatures:normal;font-variant-caps:normal;font-variant-numeric:normal;font-variant-east-asian:normal;text-align:start;letter-spacing:0px;word-spacing:0px;writing-mode:lr-tb;text-anchor:start;fill:#ff0000;fill-opacity:1;stroke:none;stroke-width:0.13229;stroke-miterlimit:4;stroke-dasharray:none"
       id="path6099" />
    <path
       d="m 20.288507,235.27135 q 0,-1.15069 0.03658,-2.46577 0.434399,-0.0185 1.897639,-0.0185 0.907666,0 1.467812,0.0185 0.03658,0 0.06402,0.0247 0.02744,0.0247 0.02744,0.0575 0.0092,0.50138 0.0092,0.71097 0,0.3226 -0.0092,0.60411 -0.436686,0.0185 -1.330634,0.0185 -0.169187,0 -0.306365,-0.002 0,0.10684 -0.0045,0.34315 -0.0023,0.23424 -0.0045,0.36371 0.747624,0.009 1.024268,0.0164 0.03658,0 0.06402,0.0246 0.02744,0.0246 0.02744,0.0575 0.0092,0.50138 0.0092,0.71097 0,0.3226 -0.0092,0.60411 -0.333802,0.0144 -1.108862,0.0185 0.01143,1.1507 0.01143,1.37878 -0.4344,0.0185 -0.80021,0.0185 -0.377241,0 -0.937388,-0.0185 -0.03658,0 -0.06402,-0.0246 -0.02744,-0.0246 -0.02744,-0.0575 -0.03658,-1.54522 -0.03658,-2.38358 z"
       style="font-style:normal;font-variant:normal;font-weight:normal;font-stretch:normal;font-size:8.87796px;line-height:1.25;font-family:Digitalt;-inkscape-font-specification:'Digitalt, Normal';font-variant-ligatures:normal;font-variant-caps:normal;font-variant-numeric:normal;font-variant-east-asian:normal;text-align:start;letter-spacing:0px;word-spacing:0px;writing-mode:lr-tb;text-anchor:start;fill:#ff0000;fill-opacity:1;stroke:none;stroke-width:0.13229;stroke-miterlimit:4;stroke-dasharray:none"
       id="path6101" />
    <path
       d="m 23.797996,237.66931 q 0,-0.0329 0.04344,-0.25686 0.121174,-0.67602 0.276643,-1.39931 0.15547,-0.72535 0.402391,-1.79796 0.246922,-1.07467 0.32237,-1.4096 0.457262,-0.0185 1.257472,-0.0185 0.745338,0 1.303197,0.0185 0.03658,0 0.0686,0.0247 0.032,0.0226 0.03887,0.0575 0.100599,0.45822 0.340661,1.49795 0.242349,1.03974 0.411535,1.83906 0.171474,0.79727 0.292649,1.51234 -0.432113,0.0185 -0.795637,0.0185 -0.583009,0 -0.896235,-0.0185 -0.03887,-0.002 -0.07087,-0.0247 -0.02972,-0.0247 -0.03658,-0.0575 -0.102888,-0.47261 -0.166901,-0.82193 h -0.848222 q -0.07316,0.43973 -0.176046,0.90412 -0.438971,0.0185 -0.756769,0.0185 -0.379528,0 -0.935101,-0.0185 -0.03429,0 -0.05487,-0.0185 -0.02058,-0.0206 -0.02058,-0.0493 z m 2.096548,-1.90481 h 0.514421 q -0.05487,-0.33699 -0.148611,-0.9596 -0.09374,-0.62466 -0.134893,-0.88356 -0.04573,0.33493 -0.121174,0.96165 -0.07545,0.62466 -0.109743,0.88151 z"
       style="font-style:normal;font-variant:normal;font-weight:normal;font-stretch:normal;font-size:8.87796px;line-height:1.25;font-family:Digitalt;-inkscape-font-specification:'Digitalt, Normal';font-variant-ligatures:normal;font-variant-caps:normal;font-variant-numeric:normal;font-variant-east-asian:normal;text-align:start;letter-spacing:0px;word-spacing:0px;writing-mode:lr-tb;text-anchor:start;fill:#ff0000;fill-opacity:1;stroke:none;stroke-width:0.13229;stroke-miterlimit:4;stroke-dasharray:none"
       id="path6103" />
    <path
       d="m 28.90333,235.1645 q 0,-0.41096 0.0092,-1.13837 0.0092,-0.7274 0.0092,-1.13836 0.457263,-0.0637 0.971683,-0.10068 0.516706,-0.0391 0.903093,-0.0391 0.333801,0 0.560146,0.0102 0.226346,0.009 0.486985,0.0411 0.262925,0.0308 0.432113,0.0904 0.169187,0.0596 0.338374,0.16439 0.169187,0.10479 0.262926,0.2548 0.09602,0.15 0.155469,0.3678 0.05944,0.21781 0.05944,0.49933 0,0.44589 -0.256066,0.78493 -0.256068,0.33904 -0.71333,0.5322 0.310938,0.0966 0.505275,0.39452 0.454975,0.80342 0.727048,1.84933 -0.420682,0.0452 -0.957966,0.0452 -0.388673,0 -0.733906,-0.0206 -0.04344,-0.002 -0.0846,-0.0246 -0.04115,-0.0227 -0.05487,-0.0576 -0.44583,-1.21645 -0.692752,-1.9644 h -0.121174 q 0.0045,0.23014 0.02058,0.94316 0.01829,0.71302 0.02058,1.07878 -0.374955,0.0144 -0.802495,0.0144 -0.386386,0 -0.935101,-0.0144 -0.03887,0 -0.06631,-0.0227 -0.02515,-0.0247 -0.02515,-0.0595 0,-0.38015 -0.0092,-1.22672 -0.0092,-0.84659 -0.0092,-1.26372 z m 1.801614,-0.46028 h 0.15547 q 0.2172,0 0.349805,-0.0966 0.134893,-0.0986 0.134893,-0.25891 0,-0.20138 -0.09145,-0.29795 -0.09145,-0.0986 -0.324656,-0.0986 -0.118888,0 -0.219486,0.007 -0.0045,0.48082 -0.0045,0.7459 z"
       style="font-style:normal;font-variant:normal;font-weight:normal;font-stretch:normal;font-size:8.87796px;line-height:1.25;font-family:Digitalt;-inkscape-font-specification:'Digitalt, Normal';font-variant-ligatures:normal;font-variant-caps:normal;font-variant-numeric:normal;font-variant-east-asian:normal;text-align:start;letter-spacing:0px;word-spacing:0px;writing-mode:lr-tb;text-anchor:start;fill:#ff0000;fill-opacity:1;stroke:none;stroke-width:0.13229;stroke-miterlimit:4;stroke-dasharray:none"
       id="path6105" />
    <path
       d="m 33.363925,237.66931 q 0,-0.0329 0.04344,-0.25686 0.121174,-0.67602 0.276643,-1.39931 0.15547,-0.72535 0.402392,-1.79796 0.246921,-1.07467 0.322369,-1.4096 0.457262,-0.0185 1.257472,-0.0185 0.745337,0 1.303197,0.0185 0.03658,0 0.06858,0.0247 0.032,0.0226 0.03887,0.0575 0.100599,0.45822 0.340661,1.49795 0.24235,1.03974 0.411536,1.83906 0.171474,0.79727 0.292648,1.51234 -0.432113,0.0185 -0.795636,0.0185 -0.58301,0 -0.896235,-0.0185 -0.03887,-0.002 -0.07087,-0.0247 -0.02972,-0.0247 -0.03658,-0.0575 -0.102888,-0.47261 -0.1669,-0.82193 h -0.848222 q -0.07316,0.43973 -0.176046,0.90412 -0.438973,0.0185 -0.756769,0.0185 -0.379528,0 -0.935102,-0.0185 -0.03429,0 -0.05487,-0.0185 -0.02058,-0.0206 -0.02058,-0.0493 z m 2.096548,-1.90481 h 0.514421 q -0.05487,-0.33699 -0.148611,-0.9596 -0.09374,-0.62466 -0.134893,-0.88356 -0.04573,0.33493 -0.121174,0.96165 -0.07545,0.62466 -0.109743,0.88151 z"
       style="font-style:normal;font-variant:normal;font-weight:normal;font-stretch:normal;font-size:8.87796px;line-height:1.25;font-family:Digitalt;-inkscape-font-specification:'Digitalt, Normal';font-variant-ligatures:normal;font-variant-caps:normal;font-variant-numeric:normal;font-variant-east-asian:normal;text-align:start;letter-spacing:0px;word-spacing:0px;writing-mode:lr-tb;text-anchor:start;fill:#ff0000;fill-opacity:1;stroke:none;stroke-width:0.13229;stroke-miterlimit:4;stroke-dasharray:none"
       id="path6107" />
    <path
       d="m 38.213192,235.26929 q 0,-0.57123 0.114316,-1.00274 0.116602,-0.43357 0.324657,-0.71919 0.208054,-0.28766 0.523566,-0.46643 0.317796,-0.18083 0.695038,-0.25686 0.377241,-0.076 0.857367,-0.076 0.256067,0 0.482412,0.0349 0.228631,0.0329 0.560146,0.10479 l -0.196623,1.28837 -0.843648,-0.0514 q -0.107457,-0.007 -0.192051,0.0164 -0.0846,0.0226 -0.164615,0.0966 -0.08002,0.0739 -0.132605,0.20137 -0.05258,0.12535 -0.0846,0.33494 -0.032,0.20959 -0.032,0.49521 0,0.28767 0.02744,0.49726 0.02972,0.20754 0.07773,0.33699 0.05029,0.1274 0.128033,0.19932 0.08002,0.0719 0.166901,0.0966 0.08687,0.0226 0.205768,0.0144 l 0.843649,-0.0493 0.187478,1.29865 q -0.546429,0.0904 -1.051704,0.0904 -0.267499,0 -0.491557,-0.0164 -0.224058,-0.0185 -0.443544,-0.0596 -0.2172,-0.0431 -0.395533,-0.11096 -0.178331,-0.0678 -0.342946,-0.1726 -0.162329,-0.1048 -0.288075,-0.24247 -0.125747,-0.13973 -0.228632,-0.32466 -0.102888,-0.18494 -0.169186,-0.41507 -0.06631,-0.23014 -0.102888,-0.51576 -0.03429,-0.28767 -0.03429,-0.62672 z"
       style="font-style:normal;font-variant:normal;font-weight:normal;font-stretch:normal;font-size:8.87796px;line-height:1.25;font-family:Digitalt;-inkscape-font-specification:'Digitalt, Normal';font-variant-ligatures:normal;font-variant-caps:normal;font-variant-numeric:normal;font-variant-east-asian:normal;text-align:start;letter-spacing:0px;word-spacing:0px;writing-mode:lr-tb;text-anchor:start;fill:#ff0000;fill-opacity:1;stroke:none;stroke-width:0.13229;stroke-miterlimit:4;stroke-dasharray:none"
       id="path6109" />
    <path
       d="m 42.191376,235.27135 q 0,-1.15069 0.03658,-2.46577 0.4344,-0.0185 0.800209,-0.0185 0.377241,0 0.937388,0.0185 0.03658,0 0.06402,0.0247 0.02744,0.0247 0.02744,0.0575 0.01829,0.75412 0.01829,1.72604 h 0.603587 q 0,-1.11987 0.01829,-1.80823 0.434399,-0.0185 0.800209,-0.0185 0.377242,0 0.937388,0.0185 0.03658,0 0.06402,0.0247 0.02744,0.0247 0.02744,0.0575 0.03658,1.54521 0.03658,2.38358 0,1.15068 -0.03658,2.46577 -0.434399,0.0185 -0.80021,0.0185 -0.377241,0 -0.937388,-0.0185 -0.03658,0 -0.06402,-0.0247 -0.02744,-0.0247 -0.02744,-0.0575 -0.01371,-0.54042 -0.01829,-1.64385 H 44.0753 q 0,1.06849 -0.01829,1.72604 -0.4344,0.0185 -0.80021,0.0185 -0.377241,0 -0.937388,-0.0185 -0.03658,0 -0.06402,-0.0247 -0.02744,-0.0247 -0.02744,-0.0575 -0.03658,-1.54522 -0.03658,-2.38358 z"
       style="font-style:normal;font-variant:normal;font-weight:normal;font-stretch:normal;font-size:8.87796px;line-height:1.25;font-family:Digitalt;-inkscape-font-specification:'Digitalt, Normal';font-variant-ligatures:normal;font-variant-caps:normal;font-variant-numeric:normal;font-variant-east-asian:normal;text-align:start;letter-spacing:0px;word-spacing:0px;writing-mode:lr-tb;text-anchor:start;fill:#ff0000;fill-opacity:1;stroke:none;stroke-width:0.13229;stroke-miterlimit:4;stroke-dasharray:none"
       id="path6111" />
  </g>
  <g
     style="display:inline"
     inkscape:label="LOGO"
     id="layer9"
     inkscape:groupmode="layer">
    <path
       sodipodi:nodetypes="aaccccscccccccsccccsccccccscccccccsccccscsscccaacscccccccccscccccccssccccccccccsccscccccsccccccccccsscs"
       id="path2669"
       d="M 4.971726,0.402117 C 4.7332269,0.42173139 4.4727023,0.50616345 4.3107719,0.68236456 4.1173931,0.89277954 4.0526904,1.1969885 4.0437725,1.4970676 v 0.00129 C 4.0259939,2.0991136 4.2380668,2.8119128 4.5332712,3.5233293 4.6286588,3.7532262 4.739239,3.96845 4.847388,4.1817878 4.6714088,4.538273 4.4905879,4.8843125 4.3146982,5.1564539 4.1522184,5.4078531 3.9958814,5.6148107 3.8736257,5.74547 c -4.355e-4,-1.9e-6 -8.712e-4,-1.9e-6 -0.00131,0 C 3.8220337,5.799244 3.7842002,5.8305239 3.7532121,5.8545957 3.7227207,5.8411269 3.6925128,5.8286333 3.6471978,5.8049802 3.5205438,5.7389518 3.3480431,5.6373286 3.1550814,5.5123338 3.0037176,5.4142793 2.8333764,5.2916258 2.6629649,5.1676034 2.6557987,5.0691809 2.6513067,4.975996 2.6315539,4.8489146 2.5386066,4.2497243 2.403643,3.6641021 2.1577612,3.2207524 2.03514,2.9996516 1.8792736,2.8018839 1.6512467,2.678856 1.416575,2.5522484 1.1176461,2.538809 0.84501382,2.645368 0.58582257,2.7466857 0.38297265,2.9309755 0.31494105,3.1661826 c -0.0663216,0.2294976 -0.007477,0.455594 0.091617,0.660937 C 0.6042392,4.2374285 0.98956386,4.6374775 1.42613,5.0212719 1.6128481,5.1854183 1.8110701,5.3402561 2.0072461,5.4900054 2.10232,6.4077649 2.126255,7.2922784 2.1263482,7.2979732 2.1243091,7.4887894 2.300426,7.6184524 2.4705684,7.616662 c 0.00131,1.02e-5 0.00261,1.02e-5 0.00392,0 0.021289,-5.86e-4 0.042753,-0.00331 0.062824,-0.00754 l 0.00522,-0.00129 c 0.00536,-0.0011 1.3727634,-0.271847 2.7171111,-0.2864474 1.3469229,-0.014619 2.7275816,0.2281673 2.7275816,0.2281673 0.1923658,0.033828 0.4099767,-0.1011273 0.4031168,-0.3186898 -3.84e-5,-0.0046 0.00256,-0.8909958 0.075911,-1.810449 C 8.6589966,5.2663479 8.8525681,5.1064547 9.0355954,4.9380414 9.4628607,4.5448685 9.8398833,4.1372883 10.027681,3.7228064 c 0.0938,-0.2070791 0.146536,-0.434986 0.0746,-0.6634155 C 10.028701,2.8255316 9.8219639,2.6466348 9.5604321,2.5509769 9.285218,2.4503069 8.9871455,2.4701274 8.7555077,2.6018253 8.5304902,2.7297623 8.3793798,2.9312018 8.2620823,3.1548804 8.0268675,3.6034502 7.9049068,4.190709 7.8262451,4.7917237 7.8094122,4.9200361 7.8087626,5.0138797 7.8039948,5.1128919 7.6365536,5.2405732 7.4688444,5.3649029 7.3197312,5.4663025 7.1298788,5.5954014 6.9593157,5.7012723 6.8341591,5.7701103 6.7893352,5.7947663 6.7596808,5.8080419 6.7294542,5.8221915 6.6980053,5.7988327 6.6594067,5.7683347 6.6077343,5.7155543 6.4823566,5.5875014 6.3206125,5.3842109 6.1522681,5.1364752 5.9702382,4.8686007 5.7801426,4.5274575 5.5960193,4.1754499 5.6994782,3.9590136 5.8054617,3.7410914 5.8957394,3.5083103 6.174023,2.7906746 6.3675458,2.0736572 6.3355029,1.4734162 6.3195178,1.1734356 6.2628249,0.85453975 6.0501802,0.66243368 5.7757635,0.41452227 5.3402877,0.37174597 4.9717154,0.40206088 Z m 0.2120289,0.54436568 c 0.2043683,-0.002208 0.2703323,0.0367724 0.3389844,0.11532102 0.064855,0.074207 0.123127,0.2239565 0.1348086,0.4426929 C 5.6809089,1.9426004 5.5174357,2.6189944 5.25574,3.2938639 5.243479,3.3254569 5.225723,3.3589079 5.212548,3.3905839 5.1986519,3.35924 5.1797275,3.3264052 5.1667409,3.2950948 4.8891307,2.6260646 4.7100357,1.9541198 4.7230509,1.5156479 v -0.00129 C 4.7295276,1.2953401 4.7843998,1.1446525 4.8473894,1.0691876 4.9142295,0.98908327 4.9793781,0.94864836 5.1837562,0.94642656 Z M 9.1874364,3.1153011 c 4.356e-4,1.9e-6 8.712e-4,1.9e-6 0.0013,0 0.025827,-0.00166 0.061928,0.00166 0.1217199,0.023561 0.129369,0.047325 0.1294923,0.065716 0.1400436,0.099196 0.00839,0.026652 0.00863,0.1105104 -0.049735,0.2393269 C 9.2922093,3.7169644 8.9762415,4.0768039 8.6167822,4.41857 8.6902545,4.051112 8.7563104,3.6520869 8.8720023,3.4315041 8.9557035,3.2718805 9.0506895,3.1746678 9.1088987,3.1413362 c 0.033384,-0.01898 0.05296,-0.024444 0.07853,-0.026036 z m -7.9563192,0.085588 c 0.025305,0.0011 0.045551,0.00727 0.078528,0.024812 0.058893,0.031758 0.157025,0.1270253 0.2447491,0.2852073 0.1208986,0.2179865 0.1965499,0.6151881 0.278779,0.9808678 C 1.4655753,4.1578706 1.1398896,3.8063552 1.02563,3.5691894 v -0.00129 C 0.96427037,3.4406029 0.96283324,3.3568608 0.97065977,3.3298128 c 0.00971,-0.033571 0.010458,-0.052799 0.13873453,-0.1029166 0.059573,-0.023276 0.095744,-0.027103 0.121722,-0.026036 z m 3.9984464,1.6814844 c 0.1160073,0.2019602 0.2302005,0.4179311 0.3481461,0.5914955 0.1824069,0.2684172 0.3590126,0.4951263 0.5274547,0.6671387 0.084147,0.085974 0.1670855,0.1598325 0.2578377,0.2194853 0.087269,0.057362 0.2063572,0.1194481 0.3586168,0.1177986 0.1067486,-0.0012 0.1881323,-0.035236 0.2460581,-0.059524 0.066641,-0.027986 0.1355935,-0.062146 0.212029,-0.1041734 0.1535256,-0.084447 0.3373572,-0.1991174 0.5405429,-0.3372903 0.011323,-0.00764 0.023919,-0.018161 0.035338,-0.026036 -0.011565,0.218671 -0.030309,0.4694749 -0.035338,0.6410972 -0.00484,0.165174 -0.00412,0.2000079 -0.00524,0.3000873 C 7.3835074,6.8380617 6.4697249,6.6770976 5.2518054,6.6903263 4.0341659,6.7035559 3.1239345,6.8842153 2.7938407,6.9457734 2.7903352,6.8455477 2.790811,6.8116144 2.782062,6.6469253 2.7729343,6.4752892 2.7478175,6.2244596 2.7310196,6.0058281 c 0.011416,0.00764 0.02402,0.017471 0.035338,0.024812 0.2063485,0.1336539 0.3927616,0.2437374 0.5483956,0.3248897 0.077124,0.040186 0.1474191,0.075182 0.2146466,0.1016719 0.058428,0.023 0.1408629,0.054473 0.2473671,0.053323 0.1521168,-0.00175 0.2698945,-0.067105 0.355999,-0.1264825 C 4.2224049,6.3222092 4.3035454,6.2470469 4.3853683,6.1595972 4.549552,5.9841211 4.71973,5.7537228 4.8958083,5.4812989 5.0094715,5.3054419 5.1184223,5.0865417 5.2295574,4.8823616 Z"
       style="color:#000000;font-style:normal;font-variant:normal;font-weight:normal;font-stretch:normal;font-size:medium;line-height:normal;font-family:sans-serif;font-variant-ligatures:normal;font-variant-position:normal;font-variant-caps:normal;font-variant-numeric:normal;font-variant-alternates:normal;font-variant-east-asian:normal;font-feature-settings:normal;font-variation-settings:normal;text-indent:0;text-align:start;text-decoration:none;text-decoration-line:none;text-decoration-style:solid;text-decoration-color:#000000;letter-spacing:normal;word-spacing:normal;text-transform:none;writing-mode:lr-tb;direction:ltr;text-orientation:mixed;dominant-baseline:auto;baseline-shift:baseline;text-anchor:start;white-space:normal;shape-padding:0;shape-margin:0;inline-size:0;clip-rule:nonzero;display:inline;overflow:visible;visibility:visible;isolation:auto;mix-blend-mode:normal;color-interpolation:sRGB;color-interpolation-filters:linearRGB;solid-color:#000000;solid-opacity:1;vector-effect:none;fill:#ff0000;fill-opacity:1;fill-rule:nonzero;stroke:none;stroke-width:0.793736;stroke-linecap:butt;stroke-linejoin:round;stroke-miterlimit:4;stroke-dasharray:none;stroke-dashoffset:0;stroke-opacity:1;color-rendering:auto;image-rendering:auto;shape-rendering:auto;text-rendering:auto;enable-background:accumulate;stop-color:#000000" />
  </g>
</svg>
